/* XPM */
const char *html_ol[] = {
  "16 16 2 1",
  "       c None",
  ".      c #000000",
  "    .           ",
  "   ..           ",
  "   ..      .    ",
  "  ....  ... ..  ",
  "                ",
  "   ..           ",
  "  ....          ",
  "    .   . .  .  ",
  "  ....  .. ..   ",
  "                ",
  "   ..           ",
  "  .  .          ",
  "    .     .  .  ",
  "  .  .  .. ...  ",
  "   ..           ",
  "                "
};
