/* XPM */
const char *textAlignRight_xpm[] = {
  "16 16 2 1",
  "      c None",
  ".     c 0x000000",
  "                ",
  "                ",
  "        ......  ",
  "                ",
  "    ..........  ",
  "                ",
  "          ....  ",
  "                ",
  "  ............  ",
  "                ",
  "      ........  ",
  "                ",
  "          ....  ",
  "                ",
  "                ",
  "                "
};
